<?xml version="1.0" encoding="utf-8"?>
<!-- Generator: Adobe Illustrator 21.1.0, SVG Export Plug-In . SVG Version: 6.00 Build 0)  -->
<svg version="1.1" id="Layer_1" xmlns="http://www.w3.org/2000/svg" xmlns:xlink="http://www.w3.org/1999/xlink" x="0px" y="0px"
	 viewBox="0 0 150 112" style="enable-background:new 0 0 150 112;" xml:space="preserve">
<style type="text/css">
	.st0{filter:url(#AI_Shadow_1);}
	.st1{fill:#00AAE3;}
	.st2{fill:#FDFDFD;}
</style>
<filter  filterUnits="objectBoundingBox" id="AI_Shadow_1">
	<feGaussianBlur  in="SourceAlpha" result="blur" stdDeviation="2"></feGaussianBlur>
	<feOffset  dx="0" dy="2"></feOffset>
	<feComponentTransfer>
		<feFuncA  slope="0.2" type="linear"></feFuncA>
	</feComponentTransfer>
	<feMerge>
		<feMergeNode></feMergeNode>
		<feMergeNode  in="SourceGraphic"></feMergeNode>
	</feMerge>
</filter>
<g class="st0">
	<path class="st1" d="M126.5,51.9c0,21.6-13.7,40.1-32.9,47.2c-4.2,1.5-8.6,2.5-13.2,2.9c-1.4,0.1-2.7,0.2-4.1,0.2
		C48.5,102.2,26,79.8,26,51.9C26,24.2,48.5,1.8,76.3,1.8C104,1.8,126.5,24.2,126.5,51.9z"/>
	<path class="st2" d="M50,72.7c5.7,0.5,10.8-0.9,15.5-4.4c-0.3-0.1-0.5-0.1-0.6-0.1c-2.7-0.3-5-1.4-6.8-3.3c-1-1-1.7-2.1-2.2-3.4
		c-0.3-0.7-0.1-0.8,0.5-0.7c1,0,2,0,2.9,0c0.2,0,0.4-0.1,0.7-0.2c-0.9-0.3-1.6-0.6-2.3-0.9c-3.5-1.8-5.4-4.7-5.9-8.6
		c0-0.2,0-0.5,0-0.7c0-0.4,0-0.6,0.5-0.4c0.7,0.3,1.5,0.6,2.3,0.8c0.5,0.1,1,0.2,1.6,0.1c-0.2-0.2-0.3-0.4-0.5-0.5
		c-2.7-2.3-4-5.4-3.9-8.9c0.1-1.6,0.5-3,1.2-4.4c0.2-0.5,0.3-0.5,0.7-0.1c2.4,2.8,5.2,5.2,8.4,7c3,1.7,6.2,2.9,9.6,3.5
		c1.1,0.2,2.2,0.3,3.3,0.5c0.7,0.1,0.8,0,0.6-0.7c-0.2-1.2-0.2-2.5,0-3.7c0.5-2.8,1.9-5,4.2-6.7c2.4-1.8,5-2.4,8-2.1
		c2.1,0.2,4,1.1,5.6,2.5c0.7,0.7,1.3,0.8,2.3,0.5c1.7-0.5,3.4-1.2,4.9-2c0.1-0.1,0.3-0.1,0.4-0.1c0,0.2,0.1,0.4,0,0.5
		c-0.5,1-1,2-1.7,2.8c-0.6,0.8-1.5,1.5-2.3,2.3c1.9-0.1,3.6-0.8,5.3-1.4l0.1,0.1c-0.3,0.5-0.6,1-1,1.4c-1.2,1.2-2.5,2.4-3.7,3.6
		c-0.3,0.3-0.5,0.5-0.5,0.9c0.1,2.1-0.1,4.2-0.5,6.3c-0.3,1.5-0.8,3.1-1.2,4.6c-0.7,2.3-1.7,4.4-3,6.4c-2.1,3.4-4.6,6.3-7.8,8.6
		c-1.9,1.4-3.9,2.6-6,3.4c-1.8,0.7-3.7,1.2-5.6,1.7c-2.2,0.6-4.5,0.7-6.8,0.7s-4.7-0.2-7-0.8c-2.6-0.6-5-1.5-7.4-2.7
		c-0.7-0.3-1.3-0.8-2-1.2C50,72.8,50,72.8,50,72.7z"/>
</g>
</svg>
