<?xml version="1.0" encoding="utf-8"?>
<!-- Generator: Adobe Illustrator 21.1.0, SVG Export Plug-In . SVG Version: 6.00 Build 0)  -->
<svg version="1.1" id="Layer_1" xmlns="http://www.w3.org/2000/svg" xmlns:xlink="http://www.w3.org/1999/xlink" x="0px" y="0px"
	 viewBox="0 0 150 111.2" style="enable-background:new 0 0 150 111.2;" xml:space="preserve">
<style type="text/css">
	.st0{filter:url(#AI_Shadow_1);}
	.st1{fill:#FFFB00;}
	.st2{fill:#FFFFFF;}
</style>
<filter  filterUnits="objectBoundingBox" id="AI_Shadow_1">
	<feGaussianBlur  in="SourceAlpha" result="blur" stdDeviation="2"></feGaussianBlur>
	<feOffset  dx="0" dy="2"></feOffset>
	<feComponentTransfer>
		<feFuncA  slope="0.2" type="linear"></feFuncA>
	</feComponentTransfer>
	<feMerge>
		<feMergeNode></feMergeNode>
		<feMergeNode  in="SourceGraphic"></feMergeNode>
	</feMerge>
</filter>
<g class="st0">
	<g>
		<path class="st1" d="M126.5,52c0,21.6-13.7,40.1-32.9,47.2c-4.2,1.5-8.6,2.5-13.2,2.9c-1.4,0.1-2.7,0.2-4.1,0.2
			C48.5,102.3,26,79.8,26,52S48.5,1.7,76.3,1.7C104,1.7,126.5,24.2,126.5,52z"/>
	</g>
	<g>
		<path d="M93.3,40.5c-0.1,1.9-0.2,3.9-0.3,5.8c0,0.4,0.2,0.6,0.5,0.6c0.9,0.2,1.7-0.1,2.5-0.4c0.6-0.2,1.2-0.5,1.8-0.5
			c1.1-0.1,2,0.3,2.8,1c0.8,0.8,0.8,1.8,0.2,2.7c-0.5,0.7-1.2,1.1-1.9,1.4c-0.9,0.4-1.8,0.6-2.7,1c-0.6,0.2-1.2,0.5-1.8,0.9
			c-0.9,0.6-1.1,1.4-0.8,2.4c0.5,1.5,1.3,2.8,2.1,4c1.6,2.4,3.6,4.4,6.1,5.8c1.4,0.8,3,1.4,4.6,1.7c1,0.2,1.4,1,1.1,1.9
			c-0.2,0.7-0.8,1.1-1.3,1.4c-1.2,0.7-2.5,1.1-3.9,1.4c-0.9,0.2-1.8,0.4-2.7,0.5c-0.4,0.1-0.6,0.2-0.6,0.6c-0.2,0.7-0.3,1.4-0.5,2.1
			c-0.3,1.3-0.9,1.6-2.3,1.4c-1.2-0.2-2.4-0.4-3.7-0.5c-2.4-0.2-4.6,0.4-6.5,1.9c-0.8,0.6-1.7,1.2-2.6,1.8c-2.4,1.6-5.1,2.3-8,2.2
			c-2.5-0.1-4.7-0.9-6.8-2.3c-0.9-0.6-1.8-1.2-2.7-1.9c-1.8-1.3-3.8-1.9-6.1-1.8c-1.3,0.1-2.5,0.3-3.8,0.5c-0.4,0-0.7,0.1-1.1,0.1
			c-0.7,0-1.1-0.5-1.3-1.1c-0.2-0.8-0.4-1.6-0.6-2.4c-0.1-0.5-0.4-0.6-0.8-0.7c-1.9-0.3-3.8-0.7-5.6-1.5c-0.7-0.3-1.4-0.7-1.9-1.3
			c-0.3-0.4-0.5-0.9-0.4-1.4s0.5-0.9,1-1c3.6-0.6,6.5-2.4,8.9-5.1c1.6-1.7,2.9-3.6,3.8-5.8c0.1-0.3,0.2-0.6,0.3-1
			c0.2-0.8-0.1-1.6-0.8-2s-1.4-0.7-2.1-1c-1-0.4-2-0.7-2.9-1.2c-0.6-0.3-1.1-0.7-1.5-1.2c-0.7-0.8-0.6-1.9,0.1-2.6
			c0.7-0.8,2.4-1.5,3.8-0.8c0.7,0.3,1.5,0.5,2.2,0.7c0.1,0,0.3,0,0.4,0c1.2,0,1.3-0.2,1.2-1.3c-0.2-3.2-0.4-6.4-0.1-9.6
			c0.3-2.9,1.5-5.4,3.3-7.6c2.5-3.1,5.7-4.9,9.5-5.7c4.1-0.8,8.1-0.6,12,1c4.2,1.8,7.2,4.9,8.8,9.2c0.4,1.2,0.6,2.5,0.7,3.7
			s0,2.5,0,3.8C93.3,40.5,93.3,40.5,93.3,40.5z M45.7,68.2c0.2,0.3,0.4,0.5,0.6,0.6c0.4,0.2,0.7,0.5,1.1,0.7
			c1.7,0.8,3.6,1.1,5.4,1.4c0.8,0.1,1.3,0.5,1.5,1.3c0.2,0.6,0.3,1.2,0.5,1.8c0.3,1.2,0,1.2,1.4,0.9c2-0.4,4-0.6,6.1-0.3
			c1.6,0.2,3,0.9,4.3,1.8c1.2,0.8,2.4,1.7,3.6,2.4c3.9,2.2,7.9,2.2,11.8,0c1-0.6,1.9-1.3,2.8-1.9s1.7-1.2,2.7-1.6
			c2.1-1,4.4-1,6.6-0.7c0.8,0.1,1.7,0.2,2.5,0.4c0.3,0.1,0.5-0.1,0.5-0.4c0.2-0.8,0.4-1.6,0.6-2.4c0.2-0.7,0.7-1.1,1.5-1.3
			c1.5-0.3,3.1-0.6,4.6-1.1c0.7-0.2,1.3-0.6,2-1c0.2-0.1,0.3-0.4,0.5-0.5c-1-0.3-1.9-0.5-2.8-0.8c-3.2-1.2-5.8-3.3-7.9-5.9
			c-1.3-1.6-2.4-3.4-3.2-5.3c-0.8-1.9-0.2-3.5,1.6-4.5c0.7-0.4,1.5-0.7,2.2-1c0.8-0.3,1.6-0.6,2.3-0.9c0.4-0.2,0.8-0.5,1.1-0.8
			c0.4-0.4,0.3-0.7-0.1-1.1c-0.6-0.6-1.6-0.7-2.4-0.4c-0.6,0.3-1.3,0.5-1.9,0.7c-0.9,0.2-1.8,0.2-2.7-0.2c-0.8-0.4-0.9-0.6-0.9-1.4
			c0-0.1,0-0.2,0-0.3c0.1-2.7,0.2-5.5,0.3-8.2c0-1.7-0.2-3.3-0.8-4.9c-1.8-4.1-4.7-7-9-8.5c-2.8-1-5.7-1.1-8.6-0.8
			c-3.4,0.4-6.5,1.7-9,4.1c-1.9,1.9-3.5,4.1-4,6.8c-0.3,1.3-0.4,2.7-0.4,4.1c0,2.5,0.2,5.1,0.3,7.6c0,1-0.1,1.3-1.1,1.6
			c-0.3,0.1-0.6,0.2-0.9,0.2c-1.3,0.1-2.5-0.2-3.7-0.8c-0.7-0.3-1.6-0.2-2.2,0.4c-0.3,0.3-0.4,0.7-0.1,1c0.3,0.3,0.6,0.6,1,0.8
			c0.7,0.4,1.5,0.6,2.2,0.9c1,0.4,2.1,0.7,3,1.4c1,0.8,1.5,1.9,1.3,3.2c-0.1,0.6-0.3,1.2-0.6,1.7c-1.9,3.9-4.5,7.1-8.2,9.3
			C49.5,67.3,47.7,67.9,45.7,68.2z"/>
		<path class="st2" d="M45.7,68.2c2-0.3,3.8-1,5.4-1.9c3.7-2.2,6.4-5.5,8.2-9.3c0.3-0.5,0.5-1.1,0.6-1.7c0.2-1.3-0.2-2.4-1.3-3.2
			c-0.9-0.7-1.9-1-3-1.4c-0.8-0.3-1.5-0.6-2.2-0.9c-0.4-0.2-0.7-0.5-1-0.8s-0.3-0.7,0.1-1c0.6-0.6,1.5-0.7,2.2-0.4
			c1.2,0.5,2.4,0.9,3.7,0.8c0.3,0,0.6-0.1,0.9-0.2c1-0.3,1.1-0.6,1.1-1.6c-0.1-2.5-0.3-5.1-0.3-7.6c0-1.4,0.1-2.8,0.4-4.1
			c0.5-2.7,2.1-4.9,4-6.8c2.5-2.4,5.6-3.7,9-4.1c2.9-0.3,5.8-0.2,8.6,0.8c4.3,1.5,7.2,4.4,9,8.5c0.7,1.5,0.8,3.2,0.8,4.9
			c0,2.7-0.2,5.5-0.3,8.2c0,0.1,0,0.2,0,0.3c-0.1,0.9,0.1,1.1,0.9,1.4c0.9,0.4,1.8,0.4,2.7,0.2c0.7-0.2,1.3-0.4,1.9-0.7
			c0.8-0.3,1.8-0.1,2.4,0.4c0.4,0.4,0.4,0.7,0.1,1.1c-0.3,0.3-0.7,0.6-1.1,0.8c-0.7,0.4-1.5,0.6-2.3,0.9c-0.7,0.3-1.5,0.6-2.2,1
			c-1.8,1-2.3,2.6-1.6,4.5c0.8,1.9,1.9,3.7,3.2,5.3c2.1,2.6,4.7,4.7,7.9,5.9c0.9,0.3,1.8,0.5,2.8,0.8c-0.1,0.2-0.3,0.4-0.5,0.5
			c-0.6,0.4-1.3,0.8-2,1c-1.5,0.4-3,0.8-4.6,1.1c-0.8,0.1-1.3,0.5-1.5,1.3s-0.4,1.6-0.6,2.4C97,74.9,96.9,75,96.6,75
			c-0.8-0.1-1.7-0.3-2.5-0.4c-2.3-0.2-4.5-0.3-6.6,0.7c-0.9,0.4-1.8,1.1-2.7,1.6c-1,0.6-1.8,1.3-2.8,1.9c-3.9,2.2-7.9,2.2-11.8,0
			c-1.3-0.7-2.4-1.6-3.6-2.4c-1.3-0.9-2.7-1.6-4.3-1.8c-2-0.3-4.1-0.1-6.1,0.3c-1.4,0.3-1.1,0.3-1.4-0.9c-0.2-0.6-0.3-1.2-0.5-1.8
			c-0.2-0.7-0.7-1.1-1.5-1.3c-1.9-0.3-3.7-0.6-5.4-1.4c-0.4-0.2-0.8-0.4-1.1-0.7C46.1,68.7,45.9,68.5,45.7,68.2z"/>
	</g>
</g>
</svg>
