<?xml version="1.0" encoding="utf-8"?>
<!-- Generator: Adobe Illustrator 21.1.0, SVG Export Plug-In . SVG Version: 6.00 Build 0)  -->
<svg version="1.1" id="Layer_1" xmlns="http://www.w3.org/2000/svg" xmlns:xlink="http://www.w3.org/1999/xlink" x="0px" y="0px"
	 viewBox="0 0 150 109.5" style="enable-background:new 0 0 150 109.5;" xml:space="preserve">
<style type="text/css">
	.st0{filter:url(#AI_Shadow_1);}
	.st1{fill:#FFFFFF;}
	.st2{fill:#23599A;}
</style>
<filter  filterUnits="objectBoundingBox" id="AI_Shadow_1">
	<feGaussianBlur  in="SourceAlpha" result="blur" stdDeviation="2"></feGaussianBlur>
	<feOffset  dx="0" dy="2"></feOffset>
	<feComponentTransfer>
		<feFuncA  slope="0.2" type="linear"></feFuncA>
	</feComponentTransfer>
	<feMerge>
		<feMergeNode></feMergeNode>
		<feMergeNode  in="SourceGraphic"></feMergeNode>
	</feMerge>
</filter>
<g class="st0">
	<path class="st1" d="M125.9,52.4c0,21.6-13.7,40.1-32.9,47.2c-4.2,1.5-8.6,2.5-13.2,2.9c-1.4,0.1-2.7,0.2-4.1,0.2
		c-27.8,0-50.3-22.5-50.3-50.3S47.9,2.1,75.7,2.1C103.4,2.1,125.9,24.6,125.9,52.4z"/>
	<path class="st2" d="M125.9,52.4c0,21.6-13.7,40.1-32.9,47.2v-37h10.8c0.6-4.4,1.2-8.8,1.7-13.2H93c0-0.3,0-0.5,0-0.8
		c0-3-0.1-6,0-9c0-1.4,0.9-2.5,2.1-3.3c0.7-0.5,1.5-0.8,2.4-0.7c1.3,0,2.6-0.1,4-0.1s2.9,0,4.3,0V23.7c-0.3,0-0.5,0-0.7,0
		c-3.4,0-6.9,0-10.3,0c-2.1,0-4.2,0.3-6.1,1.1c-2.5,1.1-4.5,2.7-6.2,4.9c-1.2,1.7-2.1,3.5-2.5,5.5c-0.2,1.1-0.3,2.2-0.3,3.4
		c0,3.3,0,6.5,0,9.8v0.8c-0.3,0-0.6,0-0.8,0c-3.1,0-6.3,0-9.4,0c-0.2,0-0.5,0.1-0.7,0.1c0,4.3,0,8.7,0,13c2,0,4,0,6,0
		c1.4,0,2.9,0,4.3,0c0.4,0,0.6,0.1,0.6,0.6c0,0.3,0,0.5,0,0.8v38.8c-1.4,0.1-2.7,0.2-4.1,0.2c-27.8,0-50.3-22.5-50.3-50.3
		S47.8,2.1,75.6,2.1C103.4,2.1,125.9,24.6,125.9,52.4z"/>
</g>
</svg>
